<svg width="512" height="512" viewBox="0 0 512 512" xmlns="http://www.w3.org/2000/svg">
  <rect width="512" height="512" rx="120" fill="#1A56DB"/>
  <g transform="translate(82, 60) scale(2.55)">
    <ellipse cx="68" cy="100" rx="54" ry="62" fill="#2B6EF5"/>
    <ellipse cx="68" cy="112" rx="34" ry="42" fill="#EEF4FF"/>
    <path d="M18,80 Q2,100 8,130 Q22,118 30,108 Z" fill="#1648C0"/>
    <path d="M118,80 Q134,100 128,130 Q114,118 106,108 Z" fill="#1648C0"/>
    <path d="M36,44 Q42,28 50,38 Q44,48 40,52 Z" fill="#1648C0"/>
    <path d="M100,44 Q94,28 86,38 Q92,48 96,52 Z" fill="#1648C0"/>
    <circle cx="50" cy="72" r="20" fill="#FFE566"/>
    <circle cx="86" cy="72" r="20" fill="#FFE566"/>
    <circle cx="52" cy="73" r="12" fill="#1A1A2E"/>
    <circle cx="88" cy="73" r="12" fill="#1A1A2E"/>
    <circle cx="56" cy="68" r="4" fill="#ffffff"/>
    <circle cx="92" cy="68" r="4" fill="#ffffff"/>
    <path d="M62,84 L68,96 L74,84 Q68,80 62,84 Z" fill="#FF8C00"/>
    <path d="M30,140 Q50,133 68,140 L68,168 Q50,175 30,168 Z" fill="#FFF3CD"/>
    <path d="M68,140 Q86,133 106,140 L106,168 Q86,175 68,168 Z" fill="#FFE08A"/>
    <rect x="66" y="140" width="4" height="28" rx="2" fill="#FF8C00"/>
    <line x1="38" y1="151" x2="62" y2="150" stroke="#FFB830" stroke-width="2.5" stroke-linecap="round"/>
    <line x1="38" y1="160" x2="62" y2="159" stroke="#FFB830" stroke-width="2.5" stroke-linecap="round"/>
    <line x1="74" y1="150" x2="98" y2="151" stroke="#FFB830" stroke-width="2.5" stroke-linecap="round"/>
    <line x1="74" y1="159" x2="98" y2="160" stroke="#FFB830" stroke-width="2.5" stroke-linecap="round"/>
    <path d="M46,162 L40,178 M50,163 L50,179 M54,162 L58,178" stroke="#FF8C00" stroke-width="3" stroke-linecap="round"/>
    <path d="M82,162 L76,178 M86,163 L86,179 M90,162 L94,178" stroke="#FF8C00" stroke-width="3" stroke-linecap="round"/>
  </g>
  <polygon points="430,40 437,60 457,60 441,73 448,93 430,80 412,93 419,73 403,60 423,60" fill="#FFE566"/>
</svg>
