<svg width="520" height="80" viewBox="0 0 520 80" xmlns="http://www.w3.org/2000/svg">
  <rect width="520" height="80" rx="16" fill="#ffffff" stroke="#FFE566" stroke-width="2"/>
  <rect x="12" y="12" width="56" height="56" rx="14" fill="#1A56DB"/>
  <g transform="translate(20, 17) scale(0.58)">
    <ellipse cx="38" cy="42" rx="30" ry="34" fill="#2B6EF5"/>
    <ellipse cx="38" cy="50" rx="19" ry="24" fill="#EEF4FF"/>
    <path d="M10,30 Q0,44 4,62 Q12,55 17,48 Z" fill="#1648C0"/>
    <path d="M66,30 Q76,44 72,62 Q64,55 59,48 Z" fill="#1648C0"/>
    <path d="M20,15 Q24,5 29,12 Q25,18 22,21 Z" fill="#1648C0"/>
    <path d="M56,15 Q52,5 47,12 Q51,18 54,21 Z" fill="#1648C0"/>
    <circle cx="26" cy="30" r="13" fill="#FFE566"/>
    <circle cx="50" cy="30" r="13" fill="#FFE566"/>
    <circle cx="27" cy="31" r="8" fill="#1A1A2E"/>
    <circle cx="51" cy="31" r="8" fill="#1A1A2E"/>
    <circle cx="30" cy="27" r="3" fill="#ffffff"/>
    <circle cx="54" cy="27" r="3" fill="#ffffff"/>
    <path d="M33,40 L38,48 L43,40 Q38,37 33,40 Z" fill="#FF8C00"/>
    <path d="M16,66 Q26,62 38,66 L38,84 Q26,88 16,84 Z" fill="#FFF3CD"/>
    <path d="M38,66 Q48,62 60,66 L60,84 Q48,88 38,84 Z" fill="#FFE08A"/>
    <rect x="36.5" y="66" width="3" height="18" rx="1.5" fill="#FF8C00"/>
    <path d="M24,80 L20,90 M28,81 L28,91 M32,80 L35,90" stroke="#FF8C00" stroke-width="2" stroke-linecap="round"/>
    <path d="M44,80 L40,90 M48,81 L48,91 M52,80 L55,90" stroke="#FF8C00" stroke-width="2" stroke-linecap="round"/>
  </g>
  <circle cx="59" cy="13" r="5" fill="#FFE566"/>
  <text x="84" y="40"
    font-family="'Fredoka One', 'Arial Rounded MT Bold', Arial, sans-serif"
    font-weight="400" font-size="28" fill="#1A56DB">mellyna</text>
  <rect x="84" y="45" width="162" height="4" rx="2" fill="#FFE566"/>
  <text x="86" y="63"
    font-family="'Nunito', Arial, sans-serif"
    font-weight="900" font-size="11" fill="#FF8C00" letter-spacing="4">EDUCATION</text>
  <rect x="260" y="18" width="2" height="44" rx="1" fill="#E0EAF8"/>
  <text x="276" y="36"
    font-family="'Nunito', Arial, sans-serif"
    font-weight="700" font-size="12" fill="#1A56DB">Tempat Belajar yang Menyenangkan</text>
  <text x="276" y="56"
    font-family="'Nunito', Arial, sans-serif"
    font-weight="400" font-size="11" fill="#AAC4E8">mellyna-education.my.id</text>
</svg>
