<svg width="620" height="220" viewBox="0 0 620 220" xmlns="http://www.w3.org/2000/svg">
  <rect width="620" height="220" rx="24" fill="#0C1A5C"/>
  <rect x="22" y="24" width="116" height="116" rx="28" fill="#FFE566"/>
  <g transform="translate(36, 32)">
    <ellipse cx="38" cy="42" rx="30" ry="34" fill="#1A56DB"/>
    <ellipse cx="38" cy="50" rx="19" ry="24" fill="#EEF4FF"/>
    <path d="M10,30 Q0,44 4,62 Q12,55 17,48 Z" fill="#1251B5"/>
    <path d="M66,30 Q76,44 72,62 Q64,55 59,48 Z" fill="#1251B5"/>
    <path d="M20,15 Q24,5 29,12 Q25,18 22,21 Z" fill="#1251B5"/>
    <path d="M56,15 Q52,5 47,12 Q51,18 54,21 Z" fill="#1251B5"/>
    <circle cx="26" cy="30" r="13" fill="#ffffff"/>
    <circle cx="50" cy="30" r="13" fill="#ffffff"/>
    <circle cx="27" cy="31" r="8" fill="#0C1A5C"/>
    <circle cx="51" cy="31" r="8" fill="#0C1A5C"/>
    <circle cx="30" cy="27" r="3" fill="#FFE566"/>
    <circle cx="54" cy="27" r="3" fill="#FFE566"/>
    <path d="M33,40 L38,48 L43,40 Q38,37 33,40 Z" fill="#FF8C00"/>
    <path d="M16,66 Q26,62 38,66 L38,84 Q26,88 16,84 Z" fill="#1A56DB"/>
    <path d="M38,66 Q48,62 60,66 L60,84 Q48,88 38,84 Z" fill="#1251B5"/>
    <rect x="36.5" y="66" width="3" height="18" rx="1.5" fill="#FFE566"/>
    <path d="M24,80 L20,90 M28,81 L28,91 M32,80 L35,90" stroke="#FF8C00" stroke-width="2" stroke-linecap="round"/>
    <path d="M44,80 L40,90 M48,81 L48,91 M52,80 L55,90" stroke="#FF8C00" stroke-width="2" stroke-linecap="round"/>
  </g>
  <text x="162" y="100"
    font-family="'Fredoka One', 'Arial Rounded MT Bold', Arial, sans-serif"
    font-weight="400" font-size="72" fill="#ffffff" letter-spacing="-1">mellyna</text>
  <rect x="162" y="108" width="418" height="9" rx="4.5" fill="#FFE566"/>
  <text x="167" y="152"
    font-family="'Nunito', Arial, sans-serif"
    font-weight="900" font-size="20" fill="#FFE566" letter-spacing="11">EDUCATION</text>
  <text x="167" y="188"
    font-family="'Nunito', Arial, sans-serif"
    font-weight="700" font-size="11" fill="#4A6FAA" letter-spacing="1.5">Tempat Belajar yang Menyenangkan</text>
</svg>
